<svg version="1.1" width="223.791" height="225" xmlns="http://www.w3.org/2000/svg" xmlns:xlink="http://www.w3.org/1999/xlink" id="svg3181" overflow="hidden"><defs id="defs3185"></defs><g id="g3187" transform="matrix(3.77953,0,0,3.77953,-233.77,-596.678)"><path d=" M 90.7794 211.178 L 90.7794 204.954 L 86.3712 205.027 L 81.9631 205.099 L 80.9709 207.48 C 80.4252 208.79 79.7698 210.874 79.5144 212.111 C 79.259 213.348 79.016 214.403 78.9744 214.457 C 78.8415 214.628 75.4519 212.67 73.8946 211.522 C 71.6975 209.903 69.9936 208.26 68.259 206.088 C 66.4372 203.807 64.6878 200.783 65.0151 200.481 C 65.1427 200.363 66.4439 199.311 67.9067 198.142 C 70.9847 195.684 74.3651 192.216 76.9147 188.902 C 77.8977 187.624 78.7951 186.47 78.909 186.338 C 79.147 186.061 81.2675 190.456 82.21 193.18 C 83.4272 196.697 83.632 200.841 82.7043 203.181 C 82.5342 203.61 82.8238 203.644 86.6501 203.644 L 90.7794 203.644 L 90.7794 190.679 L 90.7794 177.715 L 83.4921 177.715 L 76.2048 177.715 L 74.6947 180.127 C 72.4314 183.744 70.6057 185.93 66.4482 190.005 C 63.3286 193.062 62.64 193.621 62.4383 193.261 C 61.9779 192.438 61.694 187.716 61.9455 185.064 C 62.2364 181.997 62.7278 179.768 63.6589 177.294 C 66.2465 170.418 71.2732 164.73 77.7324 161.37 C 79.5716 160.413 84.1918 158.665 84.8817 158.665 C 85.0147 158.665 85.1162 159.891 85.1072 161.39 C 85.0914 164.015 85.1267 164.187 86.0726 166.102 C 86.6125 167.194 87.2839 168.297 87.5647 168.551 C 87.9983 168.943 88.0342 169.146 87.8028 169.9 C 87.2734 171.625 86.6244 172.099 83.8026 172.825 C 82.3664 173.194 80.6995 173.789 80.0984 174.148 C 78.9418 174.837 77.2857 176.218 77.2857 176.493 C 77.2857 176.583 80.3218 176.656 84.0326 176.656 L 90.7794 176.656 L 90.7794 167.264 L 90.7794 157.871 L 91.4409 157.871 L 92.1023 157.871 L 92.1023 167.264 L 92.1023 176.656 L 98.8492 176.656 C 102.56 176.656 105.596 176.583 105.596 176.493 C 105.596 176.218 103.94 174.837 102.783 174.148 C 102.182 173.789 100.515 173.194 99.0792 172.825 C 96.2574 172.099 95.6083 171.625 95.079 169.9 C 94.8476 169.146 94.8834 168.943 95.3171 168.551 C 95.5978 168.297 96.2693 167.195 96.8092 166.102 C 97.755 164.187 97.7903 164.015 97.7745 161.39 C 97.7655 159.891 97.867 158.665 98.0001 158.665 C 98.69 158.665 103.31 160.413 105.149 161.37 C 115.758 166.889 122.056 178.403 120.934 190.23 C 120.799 191.656 120.578 193.02 120.444 193.26 C 120.242 193.622 119.559 193.068 116.434 190.005 C 112.276 185.931 110.45 183.744 108.187 180.128 L 106.677 177.715 L 99.3896 177.715 L 92.1023 177.715 L 92.1023 190.679 L 92.1023 203.644 L 96.2317 203.644 C 100.058 203.644 100.348 203.61 100.177 203.181 C 99.2319 200.796 99.4664 196.534 100.737 193.012 C 101.732 190.253 103.765 186.091 103.988 186.354 C 104.094 186.477 104.967 187.602 105.93 188.854 C 109.011 192.861 112.869 196.652 117.23 199.96 L 118.128 200.642 L 117.143 202.404 C 115.275 205.744 112.272 209.101 108.987 211.522 C 107.43 212.67 104.04 214.628 103.907 214.457 C 103.866 214.403 103.623 213.348 103.367 212.111 C 103.112 210.874 102.457 208.79 101.911 207.48 L 100.919 205.099 L 96.5105 205.027 L 92.1023 204.954 L 92.1023 211.178 L 92.1023 217.402 L 91.4409 217.402 L 90.7794 217.402 Z" id="path239" stroke-width="0.264583" fill="#009BB5" fill-opacity="1"/></g></svg>